<svg xmlns="http://www.w3.org/2000/svg" xmlns:xlink="http://www.w3.org/1999/xlink" viewBox="0 0 480.1 91.02"><defs><linearGradient id="a" x1="304.7" y1="57.03" x2="291.11" y2="70.61" gradientUnits="userSpaceOnUse"><stop offset="0" stop-color="#303030"/><stop offset="0.75" stop-color="#c7c7c7"/><stop offset="0.99" stop-color="#fff"/></linearGradient><linearGradient id="b" x1="290.79" y1="50.77" x2="324.63" y2="50.77" xlink:href="#a"/><linearGradient id="c" x1="236.84" y1="58.81" x2="224.76" y2="67.48" xlink:href="#a"/><linearGradient id="d" x1="244.72" y1="53.85" x2="262.05" y2="36.01" gradientUnits="userSpaceOnUse"><stop offset="0" stop-color="#3b3b3b"/><stop offset="0.75" stop-color="#c7c7c7"/><stop offset="0.81" stop-color="#cacaca"/><stop offset="0.86" stop-color="#d4d4d4"/><stop offset="0.9" stop-color="#e4e4e4"/><stop offset="0.93" stop-color="#fafafa"/><stop offset="0.94" stop-color="#fff"/></linearGradient><linearGradient id="e" x1="160.02" y1="48.46" x2="111.19" y2="97.3" gradientUnits="userSpaceOnUse"><stop offset="0" stop-color="#3b3b3b"/><stop offset="0.75" stop-color="#c7c7c7"/><stop offset="0.99" stop-color="#fff"/></linearGradient><linearGradient id="f" x1="153.89" y1="53.11" x2="176.82" y2="39.91" gradientUnits="userSpaceOnUse"><stop offset="0" stop-color="#3b3b3b"/><stop offset="0.74" stop-color="#c7c7c7"/><stop offset="0.99" stop-color="#fff"/></linearGradient><clipPath id="g" transform="translate(-27.95 -19.99)"><path d="M51,29.55v-4q9.57,0,14.69,5.12Q70,35,70,42.19H66c-.47-2.37-1.1-6.64-3.15-8.69C60.31,31,55,30.07,51,29.55Z" fill="none"/></clipPath><clipPath id="h" transform="translate(-27.95 -19.99)"><path d="M66,42.19h4c0,4.23-1,7.55-3,10.11A17.3,17.3,0,0,1,59.19,58L53,56c6.26-2.8,9.32-4.18,10.84-6.14C65.22,48.08,65.5,44.48,66,42.19Z" fill="none"/></clipPath><linearGradient id="i" x1="48.03" y1="40.28" x2="56.28" y2="33.55" xlink:href="#f"/></defs><path d="M75.06,96.65A3.48,3.48,0,0,1,73,99.94c1.72.59,2.92,1.58,2.92,3.59,0,2.65-2.17,4-5.44,4H63.63V92.89h6.6C73.19,92.89,75.06,94.34,75.06,96.65Zm-2.59.42c0-1.2-.92-1.89-2.58-1.89H66.18v3.9H69.7C71.36,99.08,72.47,98.43,72.47,97.07Zm.82,6.19c0-1.26-1-2-3-2H66.18v4h4.28C72.22,105.3,73.29,104.6,73.29,103.26Z" transform="translate(-27.95 -19.99)" fill="#58595b"/><path d="M85.79,96.5h2.54v11.08H85.79v-1.72a4,4,0,0,1-3.47,2c-2.5,0-3.94-1.68-3.94-4.27v-7h2.54v6.3c0,1.72.86,2.71,2.37,2.71a2.47,2.47,0,0,0,2.5-2.75Z" transform="translate(-27.95 -19.99)" fill="#58595b"/><path d="M91.56,94.8V92.38h2.73V94.8Zm.11,12.78V96.5h2.54v11.08Z" transform="translate(-27.95 -19.99)" fill="#58595b"/><path d="M97.68,107.58V92.26h2.54v15.32Z" transform="translate(-27.95 -19.99)" fill="#58595b"/><path d="M111.89,107.58v-1.84a4.45,4.45,0,0,1-3.78,2.08c-2.6,0-5.14-2.08-5.14-5.78s2.5-5.77,5.14-5.77a4.58,4.58,0,0,1,3.78,2v-6h2.54v15.32Zm-3.17-9.11a3.59,3.59,0,0,0,0,7.14,3.59,3.59,0,0,0,0-7.14Z" transform="translate(-27.95 -19.99)" fill="#58595b"/><path d="M127.7,107.79a7.8,7.8,0,0,1-4.7-1.65l1.13-1.73a6.2,6.2,0,0,0,3.64,1.37c1.09,0,1.72-.46,1.72-1.2v0c0-.86-1.18-1.15-2.48-1.55-1.64-.46-3.46-1.14-3.46-3.26v0c0-2.1,1.74-3.38,3.94-3.38a7.68,7.68,0,0,1,4.08,1.26l-1,1.81a6.32,6.32,0,0,0-3.13-1c-1,0-1.55.46-1.55,1.11v0c0,.8,1.19,1.13,2.5,1.55,1.61.51,3.44,1.24,3.44,3.24v0C131.82,106.64,130,107.79,127.7,107.79Z" transform="translate(-27.95 -19.99)" fill="#58595b"/><path d="M141.19,107.58v-1.36a4.51,4.51,0,0,1-3.59,1.6c-2.1,0-3.95-1.2-3.95-3.43v0c0-2.39,1.91-3.57,4.49-3.57a9.46,9.46,0,0,1,3.07.46V101c0-1.53-1-2.37-2.73-2.37a7.68,7.68,0,0,0-3.17.69l-.7-2a9.61,9.61,0,0,1,4.22-.92c3.28,0,4.87,1.72,4.87,4.68v6.57Zm.06-4.7a7.33,7.33,0,0,0-2.54-.44c-1.6,0-2.54.65-2.54,1.79v0c0,1,.94,1.64,2.14,1.64,1.68,0,2.94-1,2.94-2.34Z" transform="translate(-27.95 -19.99)" fill="#58595b"/><path d="M152.74,96.58v2.1h-2.9v8.9H147.3v-8.9h-1.41V96.56h1.41v-.8c0-2.43,1.22-3.63,3.4-3.63a6.76,6.76,0,0,1,2.06.3v2.14a4.47,4.47,0,0,0-1.49-.28c-1,0-1.47.53-1.47,1.68v.61Z" transform="translate(-27.95 -19.99)" fill="#58595b"/><path d="M159.54,105.76a4,4,0,0,0,3-1.32l1.49,1.32a5.61,5.61,0,0,1-4.53,2.08,5.79,5.79,0,0,1-.28-11.57c3.53,0,5.32,2.77,5.32,6a5.91,5.91,0,0,1,0,.7h-8.14A3.1,3.1,0,0,0,159.54,105.76Zm2.48-4.49c-.17-1.64-1.14-2.92-2.82-2.92a3,3,0,0,0-2.87,2.92Z" transform="translate(-27.95 -19.99)" fill="#58595b"/><path d="M170.17,104.12a1.21,1.21,0,0,0,1.36,1.39,3.47,3.47,0,0,0,1.58-.38v2.08a4.54,4.54,0,0,1-2.29.56c-1.87,0-3.19-.81-3.19-3.25V98.68h-1.41V96.5h1.41v-3h2.54v3h3v2.18h-3Z" transform="translate(-27.95 -19.99)" fill="#58595b"/><path d="M181.63,107.9c-.88,2.27-1.87,3.11-3.65,3.11a5.21,5.21,0,0,1-2.63-.67l.86-1.89a3.19,3.19,0,0,0,1.49.42c.72,0,1.16-.32,1.58-1.29L174.66,96.5h2.71l3.15,8.23,2.87-8.23H186Z" transform="translate(-27.95 -19.99)" fill="#58595b"/><path d="M194.57,94.8V92.38h2.73V94.8Zm.1,12.78V96.5h2.54v11.08Z" transform="translate(-27.95 -19.99)" fill="#58595b"/><path d="M203.07,107.58h-2.54V96.5h2.54v1.72a4,4,0,0,1,3.47-2c2.49,0,3.94,1.68,3.94,4.26v7h-2.54v-6.29c0-1.73-.86-2.71-2.37-2.71a2.47,2.47,0,0,0-2.5,2.75Z" transform="translate(-27.95 -19.99)" fill="#58595b"/><path d="M216.62,104.12a1.21,1.21,0,0,0,1.36,1.39,3.47,3.47,0,0,0,1.58-.38v2.08a4.54,4.54,0,0,1-2.29.56c-1.87,0-3.19-.81-3.19-3.25V98.68h-1.41V96.5h1.41v-3h2.54v3h3v2.18h-3Z" transform="translate(-27.95 -19.99)" fill="#58595b"/><path d="M227.12,107.84a5.79,5.79,0,1,1,5.94-5.8A5.8,5.8,0,0,1,227.12,107.84Zm0-9.35a3.34,3.34,0,0,0-3.34,3.55,3.42,3.42,0,0,0,3.38,3.59,3.33,3.33,0,0,0,3.36-3.55A3.44,3.44,0,0,0,227.12,98.49Z" transform="translate(-27.95 -19.99)" fill="#58595b"/><path d="M247.86,107.9C247,110.17,246,111,244.21,111a5.14,5.14,0,0,1-2.62-.67l.86-1.89a3.13,3.13,0,0,0,1.49.42c.71,0,1.15-.32,1.57-1.29L240.89,96.5h2.71l3.15,8.23,2.88-8.23h2.64Z" transform="translate(-27.95 -19.99)" fill="#58595b"/><path d="M259.1,107.84A5.79,5.79,0,1,1,265,102,5.8,5.8,0,0,1,259.1,107.84Zm0-9.35a3.34,3.34,0,0,0-3.34,3.55,3.43,3.43,0,0,0,3.38,3.59,3.33,3.33,0,0,0,3.36-3.55A3.44,3.44,0,0,0,259.1,98.49Z" transform="translate(-27.95 -19.99)" fill="#58595b"/><path d="M274.91,96.5h2.54v11.08h-2.54v-1.72a4,4,0,0,1-3.46,2c-2.5,0-3.95-1.68-3.95-4.27v-7H270v6.3c0,1.72.86,2.71,2.37,2.71a2.47,2.47,0,0,0,2.5-2.75Z" transform="translate(-27.95 -19.99)" fill="#58595b"/><path d="M283.19,107.58h-2.54V96.5h2.54V99a3.93,3.93,0,0,1,3.92-2.71V99H287c-2.23,0-3.78,1.45-3.78,4.39Z" transform="translate(-27.95 -19.99)" fill="#58595b"/><path d="M300.74,107.84a5.79,5.79,0,0,1,0-11.57,5.52,5.52,0,0,1,4.43,1.91l-1.57,1.7a3.74,3.74,0,0,0-2.88-1.39,3.33,3.33,0,0,0-3.19,3.55,3.38,3.38,0,0,0,3.32,3.59,3.88,3.88,0,0,0,2.87-1.38l1.54,1.51A5.61,5.61,0,0,1,300.74,107.84Z" transform="translate(-27.95 -19.99)" fill="#58595b"/><path d="M312.56,107.84a5.79,5.79,0,1,1,5.95-5.8A5.81,5.81,0,0,1,312.56,107.84Zm0-9.35a3.33,3.33,0,0,0-3.33,3.55,3.42,3.42,0,0,0,3.38,3.59,3.34,3.34,0,0,0,3.36-3.55A3.44,3.44,0,0,0,312.56,98.49Z" transform="translate(-27.95 -19.99)" fill="#58595b"/><path d="M334.07,96.27c2.41,0,3.88,1.53,3.88,4.24v7.07h-2.54v-6.29c0-1.77-.82-2.71-2.25-2.71s-2.37,1-2.37,2.75v6.25h-2.54v-6.31c0-1.73-.84-2.69-2.24-2.69s-2.38,1-2.38,2.77v6.23h-2.54V96.5h2.54v1.68A4,4,0,0,1,327,96.27a3.48,3.48,0,0,1,3.3,2A4.51,4.51,0,0,1,334.07,96.27Z" transform="translate(-27.95 -19.99)" fill="#58595b"/><path d="M354,96.27c2.41,0,3.88,1.53,3.88,4.24v7.07h-2.54v-6.29c0-1.77-.82-2.71-2.25-2.71s-2.37,1-2.37,2.75v6.25H348.2v-6.31c0-1.73-.84-2.69-2.25-2.69s-2.37,1-2.37,2.77v6.23H341V96.5h2.54v1.68A4,4,0,0,1,347,96.27a3.48,3.48,0,0,1,3.3,2A4.51,4.51,0,0,1,354,96.27Z" transform="translate(-27.95 -19.99)" fill="#58595b"/><path d="M368.28,96.5h2.54v11.08h-2.54v-1.72a4,4,0,0,1-3.47,2c-2.5,0-3.95-1.68-3.95-4.27v-7h2.55v6.3c0,1.72.86,2.71,2.37,2.71a2.47,2.47,0,0,0,2.5-2.75Z" transform="translate(-27.95 -19.99)" fill="#58595b"/><path d="M376.55,107.58H374V96.5h2.54v1.72a4,4,0,0,1,3.47-2c2.5,0,3.94,1.68,3.94,4.26v7h-2.54v-6.29c0-1.73-.86-2.71-2.37-2.71a2.47,2.47,0,0,0-2.5,2.75Z" transform="translate(-27.95 -19.99)" fill="#58595b"/><path d="M387.07,94.8V92.38h2.73V94.8Zm.11,12.78V96.5h2.54v11.08Z" transform="translate(-27.95 -19.99)" fill="#58595b"/><path d="M398.16,107.84a5.79,5.79,0,0,1,0-11.57,5.52,5.52,0,0,1,4.43,1.91L401,99.88a3.74,3.74,0,0,0-2.88-1.39A3.33,3.33,0,0,0,395,102a3.37,3.37,0,0,0,3.32,3.59,3.89,3.89,0,0,0,2.87-1.38l1.53,1.51A5.59,5.59,0,0,1,398.16,107.84Z" transform="translate(-27.95 -19.99)" fill="#58595b"/><path d="M411.81,107.58v-1.36a4.5,4.5,0,0,1-3.59,1.6c-2.1,0-4-1.2-4-3.43v0c0-2.39,1.91-3.57,4.5-3.57a9.39,9.39,0,0,1,3.06.46V101c0-1.53-1-2.37-2.73-2.37a7.72,7.72,0,0,0-3.17.69l-.69-2a9.58,9.58,0,0,1,4.22-.92c3.27,0,4.87,1.72,4.87,4.68v6.57Zm.06-4.7a7.28,7.28,0,0,0-2.54-.44c-1.59,0-2.54.65-2.54,1.79v0c0,1,.95,1.64,2.14,1.64,1.68,0,2.94-1,2.94-2.34Z" transform="translate(-27.95 -19.99)" fill="#58595b"/><path d="M420.32,104.12a1.21,1.21,0,0,0,1.36,1.39,3.47,3.47,0,0,0,1.58-.38v2.08a4.56,4.56,0,0,1-2.29.56c-1.87,0-3.2-.81-3.2-3.25V98.68h-1.4V96.5h1.4v-3h2.55v3h3v2.18h-3Z" transform="translate(-27.95 -19.99)" fill="#58595b"/><path d="M425.9,94.8V92.38h2.73V94.8Zm.11,12.78V96.5h2.54v11.08Z" transform="translate(-27.95 -19.99)" fill="#58595b"/><path d="M437.14,107.84a5.79,5.79,0,1,1,5.94-5.8A5.8,5.8,0,0,1,437.14,107.84Zm0-9.35A3.34,3.34,0,0,0,433.8,102a3.42,3.42,0,0,0,3.38,3.59,3.33,3.33,0,0,0,3.36-3.55A3.44,3.44,0,0,0,437.14,98.49Z" transform="translate(-27.95 -19.99)" fill="#58595b"/><path d="M448.2,107.58h-2.54V96.5h2.54v1.72a4,4,0,0,1,3.47-2c2.5,0,3.94,1.68,3.94,4.26v7h-2.54v-6.29c0-1.73-.86-2.71-2.37-2.71a2.47,2.47,0,0,0-2.5,2.75Z" transform="translate(-27.95 -19.99)" fill="#58595b"/><path d="M495,21.55h-2.35V20h6.38v1.56h-2.34v6.14H495Z" transform="translate(-27.95 -19.99)" fill="#58595b"/><path d="M500.35,20h1.83l2,3.26,2-3.26h1.82v7.7h-1.67v-5L504.21,26h0L502,22.7v5h-1.67Z" transform="translate(-27.95 -19.99)" fill="#58595b"/><polygon points="459.36 9.56 459.36 11.79 444.02 11.79 444.02 51.96 440.93 51.96 440.93 11.79 425.6 11.79 425.6 9.56 459.36 9.56" fill="#4c4c4c"/><polygon points="421.6 15.79 421.6 5.56 425.6 9.56 425.6 11.79 421.6 15.79" fill="#333"/><polygon points="436.93 15.79 421.6 15.79 425.6 11.79 440.93 11.79 436.93 15.79" fill="#333"/><polygon points="436.93 55.96 436.93 15.79 440.93 11.79 440.93 51.96 436.93 55.96" fill="#333"/><polygon points="448.02 55.96 436.93 55.96 440.93 51.96 444.02 51.96 448.02 55.96" fill="#333"/><polygon points="448.02 15.79 448.02 55.96 444.02 51.96 444.02 11.79 448.02 15.79" fill="#acacac"/><polygon points="463.36 15.79 448.02 15.79 444.02 11.79 459.36 11.79 463.36 15.79" fill="#333"/><polygon points="463.36 5.56 463.36 15.79 459.36 11.79 459.36 9.56 463.36 5.56" fill="#acacac"/><polygon points="421.6 5.56 463.36 5.56 459.36 9.56 425.6 9.56 421.6 5.56" fill="#999"/><polygon points="425.6 11.79 421.6 15.79 421.6 5.56 425.6 9.56 425.6 11.79" fill="#acacac"/><polygon points="440.93 11.79 436.93 15.79 421.6 15.79 425.6 11.79 440.93 11.79" fill="#999"/><polygon points="440.93 51.96 436.93 55.96 436.93 15.79 440.93 11.79 440.93 51.96" fill="#acacac"/><polygon points="444.02 51.96 448.02 55.96 436.93 55.96 440.93 51.96 444.02 51.96" fill="#999"/><polygon points="444.02 11.79 448.02 15.79 448.02 55.96 444.02 51.96 444.02 11.79" fill="#333"/><polygon points="459.36 11.79 463.36 15.79 448.02 15.79 444.02 11.79 459.36 11.79" fill="#999"/><polygon points="459.36 9.56 463.36 5.56 463.36 15.79 459.36 11.79 459.36 9.56" fill="#333"/><polygon points="459.36 9.56 459.36 11.79 444.02 11.79 444.02 51.96 440.93 51.96 440.93 11.79 425.6 11.79 425.6 9.56 459.36 9.56" fill="#4c4c4c"/><polygon points="425.6 9.56 421.6 5.56 463.36 5.56 459.36 9.56 425.6 9.56" fill="#333"/><polygon points="372.95 55.96 372.95 5.56 376.95 9.56 376.95 51.96 372.95 55.96" fill="#333"/><polygon points="411.26 46.1 411.26 55.96 407.26 51.96 407.26 50.1 411.26 46.1" fill="#acacac"/><polygon points="383.9 35.52 383.9 46.1 379.9 50.1 379.9 31.52 383.9 35.52" fill="#acacac"/><polygon points="407.66 25.65 407.66 35.52 403.66 31.52 403.66 29.65 407.66 25.65" fill="#acacac"/><polygon points="383.9 15.43 383.9 25.65 379.9 29.65 379.9 11.43 383.9 15.43" fill="#acacac"/><polygon points="410.9 5.56 410.9 15.43 406.9 11.43 406.9 9.56 410.9 5.56" fill="#acacac"/><polygon points="376.95 51.96 372.95 55.96 372.95 5.56 376.95 9.56 376.95 51.96" fill="#acacac"/><polygon points="407.26 50.1 411.26 46.1 411.26 55.96 407.26 51.96 407.26 50.1" fill="#333"/><polygon points="379.9 31.52 383.9 35.52 383.9 46.1 379.9 50.1 379.9 31.52" fill="#333"/><polygon points="403.66 29.65 407.66 25.65 407.66 35.52 403.66 31.52 403.66 29.65" fill="#333"/><polygon points="379.9 11.43 383.9 15.43 383.9 25.65 379.9 29.65 379.9 11.43" fill="#333"/><polygon points="406.9 9.56 410.9 5.56 410.9 15.43 406.9 11.43 406.9 9.56" fill="#333"/><polygon points="406.9 9.56 406.9 11.43 379.9 11.43 379.9 29.65 403.66 29.65 403.66 31.52 379.9 31.52 379.9 50.1 407.26 50.1 407.26 51.96 376.95 51.96 376.95 9.56 406.9 9.56" fill="#4c4c4c"/><polygon points="411.26 55.96 372.95 55.96 376.95 51.96 407.26 51.96 411.26 55.96" fill="#333"/><polygon points="383.9 46.1 411.26 46.1 407.26 50.1 379.9 50.1 383.9 46.1" fill="#999"/><polygon points="407.66 35.52 383.9 35.52 379.9 31.52 403.66 31.52 407.66 35.52" fill="#333"/><polygon points="383.9 25.65 407.66 25.65 403.66 29.65 379.9 29.65 383.9 25.65" fill="#999"/><polygon points="410.9 15.43 383.9 15.43 379.9 11.43 406.9 11.43 410.9 15.43" fill="#333"/><polygon points="372.95 5.56 410.9 5.56 406.9 9.56 376.95 9.56 372.95 5.56" fill="#999"/><polygon points="407.26 51.96 411.26 55.96 372.95 55.96 376.95 51.96 407.26 51.96" fill="#999"/><polygon points="379.9 50.1 383.9 46.1 411.26 46.1 407.26 50.1 379.9 50.1" fill="#333"/><polygon points="403.66 31.52 407.66 35.52 383.9 35.52 379.9 31.52 403.66 31.52" fill="#999"/><polygon points="379.9 29.65 383.9 25.65 407.66 25.65 403.66 29.65 379.9 29.65" fill="#333"/><polygon points="406.9 11.43 410.9 15.43 383.9 15.43 379.9 11.43 406.9 11.43" fill="#999"/><polygon points="406.9 9.56 406.9 11.43 379.9 11.43 379.9 29.65 403.66 29.65 403.66 31.52 379.9 31.52 379.9 50.1 407.26 50.1 407.26 51.96 376.95 51.96 376.95 9.56 406.9 9.56" fill="#4c4c4c"/><polygon points="376.95 9.56 372.95 5.56 410.9 5.56 406.9 9.56 376.95 9.56" fill="#333"/><path d="M108.44,27.45l18.2,42.76h-2.85l-4.61-11.3H92.49l-4.61,11.3H85.31l18.2-42.76ZM93.18,57.11h25.31L105.83,26.22,93.18,57.11" transform="translate(-27.95 -19.99)" fill="#4c4c4c"/><polygon points="72.92 3.46 83.14 3.46 80.5 7.46 75.56 7.46 72.92 3.46" fill="#999"/><polygon points="84.58 33.12 77.89 16.78 77.89 6.23 90.54 37.12 84.58 33.12" fill="#333"/><polygon points="71.19 33.12 84.58 33.12 90.54 37.12 65.23 37.12 71.19 33.12" fill="#999"/><polygon points="51.32 54.22 72.92 3.46 75.56 7.46 57.37 50.22 51.32 54.22" fill="#333"/><polygon points="62.62 54.22 51.32 54.22 57.37 50.22 59.93 50.22 62.62 54.22" fill="#333"/><polygon points="67.23 42.91 62.62 54.22 59.93 50.22 64.54 38.91 67.23 42.91" fill="#6f6f6f"/><polygon points="88.54 42.91 67.23 42.91 64.54 38.91 91.23 38.91 88.54 42.91" fill="#333"/><polygon points="93.15 54.22 88.54 42.91 91.23 38.91 95.84 50.22 93.15 54.22" fill="#333"/><polygon points="104.74 54.22 93.15 54.22 95.84 50.22 98.69 50.22 104.74 54.22" fill="#333"/><polygon points="83.14 3.46 104.74 54.22 98.69 50.22 80.5 7.46 83.14 3.46" fill="#e0e0e0"/><polygon points="77.89 16.78 71.19 33.12 65.23 37.12 77.89 6.23 77.89 16.78" fill="#6f6f6f"/><polygon points="64.54 38.91 67.23 42.91 62.62 54.22 59.93 50.22 64.54 38.91" fill="#333"/><polygon points="95.84 50.22 93.15 54.22 88.54 42.91 91.23 38.91 95.84 50.22" fill="#dfdfdf"/><polygon points="98.69 50.22 104.74 54.22 93.15 54.22 95.84 50.22 98.69 50.22" fill="#999"/><polygon points="65.23 37.12 71.19 33.12 84.58 33.12 90.54 37.12 65.23 37.12" fill="#333"/><polygon points="90.54 37.12 84.58 33.12 77.89 16.78 77.89 6.23 90.54 37.12" fill="#dfdfdf"/><polygon points="77.89 6.23 77.89 16.78 71.19 33.12 65.23 37.12 77.89 6.23" fill="#333"/><polygon points="59.93 50.22 62.62 54.22 51.32 54.22 57.37 50.22 59.93 50.22" fill="#999"/><polygon points="57.37 50.22 51.32 54.22 72.92 3.46 75.56 7.46 57.37 50.22" fill="#6d6d6d"/><polygon points="75.56 7.46 72.92 3.46 83.14 3.46 80.5 7.46 75.56 7.46" fill="#333"/><polygon points="80.5 7.46 83.14 3.46 104.74 54.22 98.69 50.22 80.5 7.46" fill="#333"/><path d="M108.44,27.45l18.2,42.76h-2.85l-4.61-11.3H92.49l-4.61,11.3H85.31l18.2-42.76ZM93.18,57.11h25.31L106.34,27.45h-1L93.18,57.11" transform="translate(-27.95 -19.99)" fill="#4c4c4c"/><polygon points="91.23 38.91 88.54 42.91 67.23 42.91 64.54 38.91 91.23 38.91" fill="#999"/><path d="M328.5,59.16V48.94h-4.81V50H312.56v3.62h11.13V65.43a19.6,19.6,0,1,1-13-34.14,19.76,19.76,0,0,1,13.13,5l2.58-2.58A23.23,23.23,0,1,0,310.7,73.91a23.44,23.44,0,0,0,14.59-5.08h3.21V65.74c.3-.35.58-.73.86-1.1V57.07A20,20,0,0,1,328.5,59.16Z" transform="translate(-27.95 -19.99)" fill="#6d6e71"/><polygon points="292.7 43.78 292.7 36.52 296.7 32.52 296.7 45.84 292.7 43.78" fill="#333"/><polygon points="299.42 30.95 303.42 26.95 303.42 48.84 299.42 46.99 299.42 30.95" fill="#333"/><polygon points="285.54 30.95 281.54 26.95 303.42 26.95 299.42 30.95 285.54 30.95" fill="#333"/><polygon points="285.54 32.52 281.54 36.52 281.54 26.95 285.54 30.95 285.54 32.52" fill="#acacac"/><polygon points="296.7 32.52 292.7 36.52 281.54 36.52 285.54 32.52 296.7 32.52" fill="#999"/><path d="M327.36,67c-7.91,6.75-21,7.48-29.8,2.49-11-6.24-12.64-20.89-6.36-31,6.41-10.46,22.72-12.76,32.6-6.18-3,3.84-.91,2.56-1.22,7.74.93-1.12,6.66-8.7,6.66-8.7s-1.18-.94-1.79-1.39a29.68,29.68,0,0,0-32.09-1.21c-10.28,6.55-14.56,19.83-10.53,31.34,6.82,19.49,32.39,21,46.53,8.76l-4-1.85C327.27,67.07,328.56,67.54,327.36,67Z" transform="translate(-27.95 -19.99)" fill="url(#a)"/><path d="M293.2,40.78c-3.18,6.39-3.4,14.89.49,21.08,4.26,6.78,11.3,9.22,18.95,9,.22,0-.11,0,0,0,4.6-.13,8.34-2.43,12-5-1.23-.63-2.58-3.34-4-2.06a19.89,19.89,0,0,1-7.48,2.85c-9.45,1.26-17.55-4.83-18.17-14.52a16.81,16.81,0,0,1,3-11.33,16.53,16.53,0,0,1,7.63-5.28c6.5-1.91,12.27.53,17,4.56,0,0,1.84-2.88-.33-5.21C304.27,22.81,293.2,40.78,293.2,40.78Zm29.95-5.54Z" transform="translate(-27.95 -19.99)" fill="url(#b)"/><polygon points="296.7 45.84 292.7 43.78 292.7 36.52 296.7 32.52 296.7 45.84" fill="#acacac"/><path d="M248.07,24.69c-14.87,0-26.93,11.67-26.93,26.06s12.06,26.07,26.93,26.07S275,65.15,275,50.75,262.94,24.69,248.07,24.69Zm-.31,44.53c-12.89-.33-16.43-8.26-16.43-18.46s5-18.74,16.43-18.47c12.78.3,16.43,8.27,16.43,18.47S258.81,69.51,247.76,69.22Z" transform="translate(-27.95 -19.99)" fill="url(#c)"/><path d="M269,42c1.11,2.65,1.29,6.14,1.67,8.57-.39,2.56-.57,6.06-1.69,8.69-1.24,2-3.43,5.2-4.74,7-2,2-5.11,3.48-7.2,4.75-2.77,1.16-6.48,1.37-9.23,1.75-2.73-.39-6.43-.59-9.18-1.74-2.09-1.29-5.2-2.75-7.2-4.71s-3.45-5-4.66-6.9c-1.1-2.64-1.29-6.14-1.67-8.57.38-2.56.57-6,1.7-8.69,1.24-2,3.42-5.2,4.73-7,2-2,5.12-3.48,7.2-4.75,2.78-1.16,6.49-1.37,9.23-1.75,2.73.39,6.44.59,9.18,1.74,2.11,1.28,5.21,2.75,7.21,4.71S267.84,40.14,269,42Zm-1.92,8.86v-.15c.36-3.24-.46-5.16-1.39-7.56-.8-3.13-2.26-4.53-4-6.35s-3.05-3.34-6.11-4.31c-2.4-1.08-4.31-2-7.77-1.61-3.45-.4-5.37.5-7.77,1.56-3.12,1-4.38,2.48-6.09,4.34s-3.06,3.21-3.87,6.25c-.92,2.38-1.75,4.29-1.39,7.54v.14c-.36,3.25.47,5.18,1.39,7.57.81,3.12,2.26,4.52,4,6.35s3,3.34,6.07,4.31c2.4,1.08,4.32,2,7.81,1.62,3.42.39,5.32-.51,7.71-1.56,3.18-1,4.45-2.49,6.15-4.35s3.07-3.2,3.87-6.25c.93-2.37,1.76-4.29,1.39-7.54" transform="translate(-27.95 -19.99)" fill="#4c4c4c"/><path d="M247.69,29.48a21.31,21.31,0,1,0,21.25,21.31A21.3,21.3,0,0,0,247.69,29.48Zm0,39.74c-10.7,0-16.38-7.59-16.38-18.32s5.83-18.07,16.53-18.07,16.28,7.34,16.28,18.07S258.39,69.22,247.69,69.22Z" transform="translate(-27.95 -19.99)" fill="url(#d)"/><path d="M247.71,27.51a23.07,23.07,0,1,0,23,23.07A23.06,23.06,0,0,0,247.71,27.51Zm0,44.13c-11.58,0-19-9.41-19-21s7.4-21.1,19-21.1,19.41,9.63,19.41,21.24S259.29,71.64,247.71,71.64Z" transform="translate(-27.95 -19.99)" fill="#6d6e71"/><g style="isolation:isolate"><rect x="175.74" y="9.56" width="3.09" height="42.4" fill="#4c4c4c"/><polygon points="171.74 55.96 171.74 5.56 175.74 9.56 175.74 51.96 171.74 55.96" fill="#333"/><polygon points="182.82 55.96 171.74 55.96 175.74 51.96 178.82 51.96 182.82 55.96" fill="#333"/><polygon points="182.82 5.56 182.82 55.96 178.82 51.96 178.82 9.56 182.82 5.56" fill="#acacac"/><polygon points="171.74 5.56 182.82 5.56 178.82 9.56 175.74 9.56 171.74 5.56" fill="#999"/><polygon points="178.82 51.96 182.82 55.96 171.74 55.96 175.74 51.96 178.82 51.96" fill="#999"/><polygon points="178.82 9.56 182.82 5.56 182.82 55.96 178.82 51.96 178.82 9.56" fill="#333"/><rect x="175.74" y="9.56" width="3.09" height="42.4" fill="#4c4c4c"/><polygon points="175.74 51.96 171.74 55.96 171.74 5.56 175.74 9.56 175.74 51.96" fill="#acacac"/><polygon points="175.74 9.56 171.74 5.56 182.82 5.56 178.82 9.56 175.74 9.56" fill="#333"/></g><path d="M186.37,40.7a23.58,23.58,0,0,0-5.5-8,25.69,25.69,0,0,0-8.5-5.29,29.77,29.77,0,0,0-10.84-1.91H141.88l4,4h15.65c2.89.37,6.6.56,9.4,1.64,2.09,1.21,5.2,2.58,7.18,4.46,1.22,1.69,3.42,4.85,4.58,6.62,1.08,2.54,1.24,6,1.63,8.34-.39,2.53-.55,6-1.63,8.53-1.17,1.79-3.37,5-4.58,6.64a12.9,12.9,0,0,1-1.65,1.32l0,0c-.29.2-.59.4-.89.58l0,0c-.31.19-.62.38-.94.56h0l-1,.53h0l-1,.52,0,0-.34.18-.37.2-.09,0-.09,0-.24.13-.5.29-.06,0A24.46,24.46,0,0,1,165,71.54h0l-1.29.15h0l-.27,0-.3,0-.3,0-.14,0h0l-.16,0-.35,0-.37,0-.23,0H145.88l-4,4h20.46l.45,0h.41l.37,0,.36,0,.33,0,.15,0h.17l.3,0,.28,0,.28,0,.26,0,.12,0h0l.12,0,.24,0,.24,0,.23,0,.22,0,.21,0,.09,0h0l.11,0,.2,0,.2,0,.19,0,.19,0,.18-.05.18,0,.08,0h.09l.18,0,.16,0,.17,0,.16,0,.16,0,.15,0,.15,0,.09,0h0l.05,0,.15,0,.15,0,.14,0,.14,0,.14,0,.14,0,.13,0,.14,0h0l.09,0h0l0,0,.13,0,.13-.05.13,0,.12,0,.13,0,.09,0h0l0,0h0l0,0h0l0,0h0l0,0h0l0,0,0,0h0l.08,0,.75-.31.58-.26.48-.22.43-.21.05,0,0,0,.3-.15.36-.19.33-.18.32-.18.29-.17.29-.17.27-.17,0,0h0l.22-.14.25-.16v0l.25-.16.24-.17.23-.16.23-.17.22-.16.23-.17.16-.12h0l.06,0,.22-.18.23-.18.22-.18.23-.2.23-.2.24-.21.14-.13.1-.09.09-.09.1-.09h0a23.41,23.41,0,0,0,5.5-8,25.41,25.41,0,0,0,1.95-10.08A25,25,0,0,0,186.37,40.7Z" transform="translate(-27.95 -19.99)" fill="url(#e)"/><path d="M180.94,50.9v-.14c.39-3.3-.46-5.24-1.42-7.6-.83-3.11-2.3-4.42-4-6.15s-2.88-3.43-6.09-4.26c-2.42-.94-3.91-1.68-7.33-1.3l-13.5-.1V70h16l.09,0h.25l.09,0h.09l.08,0,.09,0h.09l.09,0,.09,0,.08,0h0l.1,0,.09,0,.09,0,.09,0,.1,0,.1,0,.09,0,.1,0,.1,0,.11,0,.1,0,.11,0,.11,0,.11,0,.13,0,.12,0,.11,0h0l.13,0,.14,0a.66.66,0,0,1,.15-.05L168,69l.17-.06.19-.07.2-.08.22-.08,0,0h.07l0,0H169l0,0h0l0,0h0s0,0,0,0l.08,0,.11,0,.11,0,.11,0,.1,0,.11,0,.1,0,.1,0,.1,0,.1,0,.1,0h0l.07,0,.1,0,.09,0,.1,0,.09,0,.1,0,.09,0,.09,0,.09,0,.1,0,0,0h0l.09,0,.09,0,.1,0,.09,0,.09,0,.1,0,.09,0,.09-.05.08,0h0l.1-.06.09-.06.11-.06.1-.07.1-.06.11-.08.11-.07,0,0h0l.09-.07.12-.09.12-.09.14-.11.13-.11.07-.06,0,0s0,0,0-.05l.17-.14L174,66l.21-.19.08-.07.19-.18.36-.36.62-.63,0,0,.8-.8.16-.16.11-.12.25-.25.34-.37.19-.21q.25-.3.48-.6l.09-.13a6.18,6.18,0,0,0,.36-.53l.15-.26a3.72,3.72,0,0,0,.27-.48l.15-.3a4.87,4.87,0,0,0,.24-.57c0-.1.09-.2.12-.3.12-.31.22-.63.32-1C180.48,56.19,181.34,54.26,180.94,50.9Zm-4.07,0A15.78,15.78,0,0,1,175.73,57c-.17.42-.37.82-.57,1.21-.06.13-.14.25-.21.37s-.3.53-.46.78-.17.27-.26.39-.35.49-.53.72l-.27.34c-.27.32-.56.64-.86.94a12,12,0,0,1-1.06.95h0a13.58,13.58,0,0,1-1.16.83h0a14.24,14.24,0,0,1-2.65,1.32c-.48.18-1,.33-1.46.47h0a18.39,18.39,0,0,1-4.84.61h-8.74V35.56h8.74a17.11,17.11,0,0,1,6.31,1.12,13.84,13.84,0,0,1,8,8,16.1,16.1,0,0,1,1.14,6.12Z" transform="translate(-27.95 -19.99)" fill="url(#f)"/><path d="M161.58,29.43c23.47,0,23.11,21.32,23.11,21.32C184,62.29,179.19,72,161.53,72H145.88l-.11-42.53ZM161.53,70c20-2.21,18.88-19.2,18.88-19.2s.25-18.95-18.7-19.19c-6.4-.08-12.74,0-12.74,0V70Z" transform="translate(-27.95 -19.99)" fill="#4c4c4c"/><path d="M368.89,29.2,387.08,72h-2.85l-4.61-11.31H352.93L348.32,72h-2.57L364,29.2ZM353.62,58.86h25.31L366.27,28l-12.65,30.9" transform="translate(-27.95 -19.99)" fill="#4c4c4c"/><polygon points="333.36 5.2 343.58 5.2 340.94 9.2 336 9.2 333.36 5.2" fill="#999"/><polygon points="345.02 34.87 338.33 18.52 338.33 7.97 350.98 38.87 345.02 34.87" fill="#333"/><polygon points="331.63 34.87 345.02 34.87 350.98 38.87 325.67 38.87 331.63 34.87" fill="#999"/><polygon points="311.76 55.96 333.36 5.2 336 9.2 317.81 51.96 311.76 55.96" fill="#333"/><polygon points="323.06 55.96 311.76 55.96 317.81 51.96 320.37 51.96 323.06 55.96" fill="#333"/><polygon points="327.67 44.66 323.06 55.96 320.37 51.96 324.98 40.66 327.67 44.66" fill="#6f6f6f"/><polygon points="348.98 44.66 327.67 44.66 324.98 40.66 351.67 40.66 348.98 44.66" fill="#333"/><polygon points="353.59 55.96 348.98 44.66 351.67 40.66 356.28 51.96 353.59 55.96" fill="#333"/><polygon points="365.18 55.96 353.59 55.96 356.28 51.96 359.13 51.96 365.18 55.96" fill="#333"/><polygon points="343.58 5.2 365.18 55.96 359.13 51.96 340.94 9.2 343.58 5.2" fill="#e0e0e0"/><polygon points="338.33 18.52 331.63 34.87 325.67 38.87 338.33 7.97 338.33 18.52" fill="#6f6f6f"/><polygon points="324.98 40.66 327.67 44.66 323.06 55.96 320.37 51.96 324.98 40.66" fill="#333"/><polygon points="356.28 51.96 353.59 55.96 348.98 44.66 351.67 40.66 356.28 51.96" fill="#dfdfdf"/><polygon points="359.13 51.96 365.18 55.96 353.59 55.96 356.28 51.96 359.13 51.96" fill="#999"/><polygon points="325.67 38.87 331.63 34.87 345.02 34.87 350.98 38.87 325.67 38.87" fill="#333"/><polygon points="350.98 38.87 345.02 34.87 338.33 18.52 338.33 7.97 350.98 38.87" fill="#dfdfdf"/><polygon points="338.33 7.97 338.33 18.52 331.63 34.87 325.67 38.87 338.33 7.97" fill="#333"/><polygon points="320.37 51.96 323.06 55.96 311.76 55.96 317.81 51.96 320.37 51.96" fill="#999"/><polygon points="317.81 51.96 311.76 55.96 333.36 5.2 336 9.2 317.81 51.96" fill="#6d6d6d"/><polygon points="336 9.2 333.36 5.2 343.58 5.2 340.94 9.2 336 9.2" fill="#333"/><polygon points="340.94 9.2 343.58 5.2 365.18 55.96 359.13 51.96 340.94 9.2" fill="#333"/><path d="M368.89,29.2,387.08,72h-2.85l-4.61-11.31H352.93L348.32,72h-2.57L364,29.2ZM353.62,58.86h25.31L366.78,29.2h-1L353.62,58.86" transform="translate(-27.95 -19.99)" fill="#4c4c4c"/><polygon points="351.67 40.66 348.98 44.66 327.67 44.66 324.98 40.66 351.67 40.66" fill="#999"/><path d="M59.06,31.27l.71.28h0l.68.31h0l.64.34,0,0c.2.12.4.24.59.37h0c.19.13.37.27.55.41l0,0c.17.14.33.29.49.45a5.46,5.46,0,0,1,.7.86h0a11,11,0,0,1,.58,1h0c.17.36.33.74.47,1.12h0v0a26.15,26.15,0,0,1,1,3.58h0c.07.36.14.7.2,1v0a.5.5,0,0,0,0,.12s0,.07,0,.11,0,.08,0,.12a.36.36,0,0,1,0,.11.43.43,0,0,1,0,.11l0,.11a.36.36,0,0,1,0,.1.43.43,0,0,1,0,.11.3.3,0,0,1,0,.1h0l0,.1,0,.17,0,.17a1.24,1.24,0,0,1,0,.16l0,.16,0,.13a.43.43,0,0,1,0,.05s0,.09,0,.13l0,.15c0,.05,0,.1,0,.15l0,.15,0,.14,0,.14v.1c-.12.69-.25,1.42-.4,2.12h0a12.25,12.25,0,0,1-.94,2.89h0a4.89,4.89,0,0,1-.46.74l-.31.36h0a6.86,6.86,0,0,1-.72.7h0c-.13.11-.27.21-.42.32l0,0-.41.29-.12.08a3.28,3.28,0,0,1-.31.2l-.26.16-.28.17-.4.23-.28.15a5.42,5.42,0,0,1-.48.26l-.26.14-.79.4-.24.11-.65.32-.4.19-.57.26-.47.22-.58.27-.51.23-.66.29-.52.24L53,56l6.18,2c.45-.17.88-.35,1.3-.54l.4-.2c.28-.14.56-.28.83-.43s.3-.16.44-.25.5-.3.74-.45l.42-.28c.24-.18.48-.35.71-.54a2.48,2.48,0,0,0,.26-.19l.16-.13.12-.1.17-.15.32-.28.23-.21a.94.94,0,0,1,.1-.1l0,0,.08-.08.17-.17.16-.16.13-.14.13-.14.11-.12,0,0h0l.05-.07L66.4,53l.09-.1.08-.1.09-.1.08-.1.07-.09.08-.09.07-.09L67,52.3v0l0-.06.05-.06,0-.06,0-.07.05-.06,0-.06,0-.06,0-.06,0-.07,0-.06,0-.06,0-.06,0-.07,0-.06,0-.06,0,0h0l0-.07,0-.06a.21.21,0,0,1,0-.06l0-.07,0-.06a.25.25,0,0,0,0-.07l0-.06a.25.25,0,0,1,0-.07l0-.06,0-.07,0-.07a.25.25,0,0,1,0-.07l0-.07,0-.07,0-.07,0,0h0l0-.07,0-.08a.25.25,0,0,0,0-.07.3.3,0,0,1,0-.08l0-.07,0-.08,0-.08,0-.08,0-.08,0-.08,0-.08a.59.59,0,0,0,0-.08l0-.09,0-.09,0-.09a.36.36,0,0,0,0-.09l0-.09,0-.09,0-.1,0-.1,0-.09,0-.1,0-.11,0-.1s0-.08,0-.11l0-.11v-.08a0,0,0,0,0,0,0,.56.56,0,0,1,0-.12l0-.12,0-.11,0-.12a.5.5,0,0,1,0-.13l0-.13,0-.13,0-.14,0-.14,0-.1v0l0-.15,0-.15,0-.16,0-.16,0-.16a1.1,1.1,0,0,1,0-.18l0-.18a1.1,1.1,0,0,0,0-.18,0,0,0,0,0,0,0h0l0-.16c0-.06,0-.13,0-.2a1.23,1.23,0,0,0,0-.19l0-.22c0-.07,0-.14,0-.22a1.64,1.64,0,0,0,0-.22c0-.08,0-.16,0-.24s0-.17,0-.25v-.26A2.44,2.44,0,0,0,70,43a2.71,2.71,0,0,0,0-.29v-.3a1.09,1.09,0,0,0,0-.18v0a1.27,1.27,0,0,0,0-.2v-.41c0-.06,0-.13,0-.2a1.21,1.21,0,0,0,0-.19,1.27,1.27,0,0,0,0-.2,1.34,1.34,0,0,0,0-.2c0-.06,0-.13,0-.19s0-.1,0-.14h0v0c0-.06,0-.12,0-.19s0-.12,0-.19,0-.12,0-.18,0-.13,0-.19a1.11,1.11,0,0,1,0-.19l0-.18,0-.18a1.1,1.1,0,0,0,0-.18.51.51,0,0,1,0-.13h0v0l0-.18,0-.17c0-.06,0-.12,0-.17l0-.17c0-.06,0-.11,0-.17l0-.16a1,1,0,0,1,0-.17,1761550715990.3,1761550715990.3,0,0,1-.08-.32s0-.1-.05-.16,0-.1,0-.15l0-.16a.88.88,0,0,1,0-.15l0-.15a.88.88,0,0,0,0-.15l-.05-.15A.88.88,0,0,0,69,36a.58.58,0,0,0,0-.14l0-.14v0l0-.12a.88.88,0,0,1,0-.15h0l-.06-.14-.06-.14L68.63,35l-.06-.14-.07-.14-.06-.14s0-.09-.07-.14l-.06-.12h0s0-.09-.07-.14L68.16,34c0-.05,0-.1-.08-.14L68,33.73l-.08-.14-.09-.15-.09-.15-.09-.15L67.57,33h0a1.63,1.63,0,0,0-.11-.17l-.11-.17-.12-.17-.15-.21-.15-.2-.22-.28c-.11-.13-.21-.26-.33-.38S66,31,65.81,30.8l-.13-.13-.23-.22-.27-.26L65,30l-.18-.15-.18-.16-.15-.12-.14-.12h0l-.13-.11L64,29.25l-.13-.1h0v0h0v0l-.13-.09-.13-.1-.13-.09-.13-.08-.12-.08-.12-.09L63,28.54l-.12-.07-.06,0h0l-.06,0-.12-.07-.12-.07-.12-.08-.12-.06L62.16,28,62,28l-.12-.07-.12-.06-.13-.06-.12-.07-.13-.06-.13-.06-.08,0h0l0,0L61,27.47l-.13-.06-.13-.06-.14-.05-.13-.06-.13-.06-.14-.05-.13-.05L60,27,59.83,27l-.15,0-.14-.05-.14-.05-.15-.06-.15-.05-.15,0-.15-.05-.16-.05-.15,0-.16-.05-.16,0L58,26.39l-.17,0h0l-.17-.05-.13,0h0l-.17,0-.18,0-.18,0-.18,0-.18,0-.19,0-.19,0L56,26l-.2,0-.2,0-.14,0h-.06l-.2,0-.21,0-.21,0-.21,0-.23,0-.22,0-.22,0-.23,0-.23,0-.17,0H53l-.25,0H51v4" transform="translate(-27.95 -19.99)" fill="#343434"/><polygon points="0 5.56 23.04 5.56 23.04 9.56 4 9.56 0 5.56" fill="#999"/><g style="isolation:isolate"><g clip-path="url(#g)"><g style="isolation:isolate"><path d="M51,29.55v-4q9.57,0,14.69,5.12Q70,35,70,42.19H66c-.47-2.37-1.1-6.64-3.15-8.69C60.31,31,56.67,29.64,51,29.55" transform="translate(-27.95 -19.99)" fill="#343434"/></g></g></g><g style="isolation:isolate"><g clip-path="url(#h)"><g style="isolation:isolate"><path d="M66,42.19h4c0,4.23-1,7.55-3,10.11-.19.24-.38.47-.58.7l-3.05-2.62a5.62,5.62,0,0,0,.46-.53c1.38-1.77,1.66-5.37,2.15-7.66" transform="translate(-27.95 -19.99)" fill="#343434"/><path d="M63.38,50.38,66.44,53l-.27.3-3-2.68.23-.24" transform="translate(-27.95 -19.99)" fill="#353535"/><path d="M63.15,50.62l3,2.68-.22.24-3-2.74.21-.18" transform="translate(-27.95 -19.99)" fill="#363636"/><path d="M62.94,50.8l3,2.74-.19.2-3-2.78.18-.16" transform="translate(-27.95 -19.99)" fill="#373737"/><path d="M62.76,51l3,2.78-.17.17-3-2.82.17-.13" transform="translate(-27.95 -19.99)" fill="#383838"/><path d="M62.59,51.09l3,2.82-.16.16-3-2.85.17-.13" transform="translate(-27.95 -19.99)" fill="#393939"/><path d="M62.42,51.22l3,2.85-.16.15-3-2.88.16-.12" transform="translate(-27.95 -19.99)" fill="#3a3a3a"/><path d="M62.26,51.34l3,2.88a1,1,0,0,1-.15.14l-3-2.9.16-.12" transform="translate(-27.95 -19.99)" fill="#3b3b3b"/><path d="M62.1,51.46l3,2.9-.14.13-3-2.92.16-.11" transform="translate(-27.95 -19.99)" fill="#3c3c3c"/><path d="M61.94,51.57l3,2.92-.14.13-3.06-2.95.16-.1" transform="translate(-27.95 -19.99)" fill="#3d3d3d"/><path d="M61.78,51.67l3.06,2.95-.15.13-3.07-3,.16-.11" transform="translate(-27.95 -19.99)" fill="#3e3e3e"/><path d="M61.62,51.78l3.07,3-.13.11-3.11-3,.17-.1" transform="translate(-27.95 -19.99)" fill="#3f3f3f"/><path d="M61.45,51.88l3.11,3-.14.12-3.13-3,.16-.11" transform="translate(-27.95 -19.99)" fill="#404040"/><path d="M61.29,52l3.13,3-.15.12-3.15-3,.17-.1" transform="translate(-27.95 -19.99)" fill="#414141"/><path d="M61.12,52.09l3.15,3-.14.11-3.19-3,.18-.1" transform="translate(-27.95 -19.99)" fill="#424242"/><path d="M60.94,52.19l3.19,3-.14.11-3.22-3a1,1,0,0,0,.17-.1" transform="translate(-27.95 -19.99)" fill="#434343"/><path d="M60.77,52.29l3.22,3-.14.11-3.27-3,.19-.11" transform="translate(-27.95 -19.99)" fill="#444"/><path d="M60.58,52.4l3.27,3-.15.11-3.31-3,.19-.11" transform="translate(-27.95 -19.99)" fill="#454545"/><path d="M60.39,52.51l3.31,3-.15.11-3.36-3,.2-.1" transform="translate(-27.95 -19.99)" fill="#464646"/><path d="M60.19,52.61l3.36,3-.15.11-3.41-3,.2-.11" transform="translate(-27.95 -19.99)" fill="#474747"/><path d="M60,52.72l3.41,3-.16.11-3.47-3,.22-.12" transform="translate(-27.95 -19.99)" fill="#484848"/><path d="M59.77,52.84l3.47,3-.16.11-3.53-3,.22-.11" transform="translate(-27.95 -19.99)" fill="#494949"/><path d="M59.55,53l3.53,3-.16.11-3.61-3,.24-.12" transform="translate(-27.95 -19.99)" fill="#4a4a4a"/><path d="M59.31,53.07l3.61,3-.17.11-3.68-3,.24-.12" transform="translate(-27.95 -19.99)" fill="#4b4b4b"/><path d="M59.07,53.19l3.68,3-.18.11-3.76-3,.26-.14" transform="translate(-27.95 -19.99)" fill="#4d4d4d"/><path d="M58.81,53.33l3.76,3-.19.11-3.85-3,.28-.13" transform="translate(-27.95 -19.99)" fill="#4e4e4e"/><path d="M58.53,53.46l3.85,3-.19.12-4-2.93.3-.15" transform="translate(-27.95 -19.99)" fill="#4f4f4f"/><path d="M58.23,53.61l4,2.93-.2.12-4.07-2.91.31-.14" transform="translate(-27.95 -19.99)" fill="#505050"/><path d="M57.92,53.75,62,56.66l-.22.12-4.2-2.86.35-.17" transform="translate(-27.95 -19.99)" fill="#515151"/><path d="M57.57,53.92l4.2,2.86-.23.12-4.33-2.81.36-.17" transform="translate(-27.95 -19.99)" fill="#525252"/><path d="M57.21,54.09l4.33,2.81-.25.13L56.8,54.28l.41-.19" transform="translate(-27.95 -19.99)" fill="#535353"/><path d="M56.8,54.28,61.29,57l-.26.13-4.67-2.68.44-.2" transform="translate(-27.95 -19.99)" fill="#545454"/><path d="M56.36,54.48,61,57.16l-.3.15-4.88-2.6.51-.23" transform="translate(-27.95 -19.99)" fill="#555"/><path d="M55.85,54.71l4.88,2.6-.32.15L55.27,55l.58-.27" transform="translate(-27.95 -19.99)" fill="#565656"/><path d="M55.27,55l5.14,2.48-.37.16-5.43-2.35.66-.29" transform="translate(-27.95 -19.99)" fill="#575757"/><path d="M54.61,55.27,60,57.62l-.43.18L53.8,55.64l.81-.37" transform="translate(-27.95 -19.99)" fill="#585858"/><path d="M53.8,55.64l5.81,2.16-.42.16L53,56l.79-.35" transform="translate(-27.95 -19.99)" fill="#595959"/></g></g></g><polygon points="7.09 35.84 11.09 39.84 11.09 55.96 7.09 51.96 7.09 35.84" fill="#333"/><polygon points="7.09 51.96 11.09 55.96 0 55.96 4 51.96 7.09 51.96" fill="#999"/><polygon points="4 51.96 0 55.96 0 5.56 4 9.56 4 51.96" fill="#acacac"/><polygon points="4.02 9.65 0 5.56 23.15 5.56 23.15 9.65 4.02 9.65" fill="#333"/><polygon points="21.94 35.84 19.8 39.84 11.09 39.84 7.09 35.84 21.94 35.84" fill="#999"/><polygon points="32.73 51.96 30.6 55.96 19.8 39.84 21.94 35.84 32.73 51.96" fill="#ececec"/><polygon points="35.98 51.96 43.56 55.96 30.6 55.96 32.73 51.96 35.98 51.96" fill="#999"/><polygon points="25.06 36 31.25 37.96 43.56 55.96 35.98 51.96 25.06 36" fill="#333"/><path d="M62.81,44c0-.38,0-.77-.05-1.2v-.14c.43-5.37-1.24-6.66-3.89-8.76-2.4-1.89-4.32-3.25-9-2.71H34.7v23H50.11l.11,0H54l.06,0h.13l.06,0h.07l.06,0h.06l.06,0h.06l.06,0h.06l.06,0,.06,0,.06,0H55l.06,0,0,0h0l.06,0,.06,0,.06,0,.06,0,.06,0,.06,0,0,0,.06,0,0,0h0l.06,0,.06,0,.06,0,.06,0,.06,0,0,0,.06,0,.07,0h0l.05,0,.06,0,.06,0,.06,0,.06,0,.07,0,.07,0,0,0h0l.06,0,.07,0,.07,0,.07-.05.08,0,.06,0s0,0,0,0l.06,0,.08,0,.09-.06.08-.06.09-.06.09-.07.1-.08.1-.07.1-.08.13-.1.12-.1.13-.11.1-.08,0,0h0l.16-.13.21-.18,0,0,.05,0,.15-.13.14-.13.11-.1.68-.61a.52.52,0,0,0,.11-.1h0l.14-.14.18-.16.06-.06.15-.15.14-.13.05-.05.47-.51.07-.09c.13-.15.25-.31.37-.47l.09-.13c.12-.18.24-.38.35-.58l.06-.13c.09-.19.17-.38.25-.58a.69.69,0,0,1,0-.13c.08-.24.14-.49.2-.75,0-.07,0-.13,0-.2.05-.25.08-.51.11-.79a.49.49,0,0,0,0-.12c0-.31,0-.66,0-1Zm-24.06,6.1V35.24H49.89a10.23,10.23,0,0,1,6.49,1.85,6.6,6.6,0,0,1,2.33,5.53v.14a7.8,7.8,0,0,1-.08,1.1l0,.25a6.59,6.59,0,0,1-.22,1,1,1,0,0,0,0,.1,7.71,7.71,0,0,1-.33.84,1.74,1.74,0,0,0-.1.19,6.25,6.25,0,0,1-.51.82,5.58,5.58,0,0,1-.38.47l0,0a6.14,6.14,0,0,1-.51.51c-.19.16-.38.32-.58.46h0a6.73,6.73,0,0,1-.63.4h0a7.56,7.56,0,0,1-.7.34h0a5.68,5.68,0,0,1-.76.28h0c-.27.08-.54.16-.82.22h0c-.28.06-.57.11-.88.15h0a9.53,9.53,0,0,1-1,.1h0c-.33,0-.66,0-1,0Z" transform="translate(-27.95 -19.99)" fill="url(#i)"/><path d="M53,56,63.93,72H60.68L49.88,55.83H35V72H32V29.55H51c4,.08,8.69-.11,12.34,4C65.26,35.74,66,39.78,66,42.19a13.19,13.19,0,0,1-2.15,7.66C62.33,51.81,60.76,54.28,53,56Zm9.26-13.24S62.72,31.56,50,31.56H35V54s3.33.11,15.16,0C62.94,53.91,62.27,42.75,62.27,42.75Z" transform="translate(-27.95 -19.99)" fill="#4c4c4c"/></svg>